M48
;DRILL file {KiCad 4.0.7} date 11/03/17 20:23:46
;FORMAT={-:-/ absolute / metric / decimal}
FMAT,2
METRIC,TZ
T1C0.381
T2C1.000
%
G90
G05
M71
T1
X126.238Y-101.854
X126.238Y-104.354
X126.238Y-106.854
X126.238Y-109.354
X126.238Y-111.854
X126.238Y-114.354
X128.738Y-101.854
X128.738Y-104.354
X128.738Y-106.854
X128.738Y-109.354
X128.738Y-111.854
X128.738Y-114.354
X131.238Y-101.854
X131.238Y-104.354
X131.238Y-106.854
X131.238Y-109.354
X131.238Y-111.854
X131.238Y-114.354
X131.238Y-116.854
X131.238Y-124.354
X133.738Y-101.854
X133.738Y-104.354
X133.738Y-106.854
X133.738Y-109.354
X133.738Y-111.854
X133.738Y-114.354
X133.738Y-116.854
X133.738Y-124.354
X136.238Y-101.854
X136.238Y-104.354
X136.238Y-106.854
X136.238Y-109.354
X136.238Y-111.854
X136.238Y-124.354
X138.738Y-101.854
X138.738Y-104.354
X138.738Y-106.854
X138.738Y-109.354
X138.738Y-111.854
X138.738Y-124.354
X141.238Y-124.354
X143.738Y-124.354
X146.238Y-101.854
X146.238Y-104.354
X146.238Y-106.854
X146.238Y-109.354
X146.238Y-111.854
X146.238Y-114.354
X148.738Y-101.854
X148.738Y-104.354
X148.738Y-106.854
X148.738Y-109.354
X148.738Y-111.854
X148.738Y-114.354
T2
X143.256Y-102.616
X143.256Y-106.934
T0
M30
