G04 #@! TF.FileFunction,Soldermask,Top*
%FSLAX46Y46*%
G04 Gerber Fmt 4.6, Leading zero omitted, Abs format (unit mm)*
G04 Created by KiCad (PCBNEW 4.0.7) date 11/03/17 21:56:08*
%MOMM*%
%LPD*%
G01*
G04 APERTURE LIST*
%ADD10C,0.100000*%
%ADD11R,4.900000X1.800000*%
%ADD12C,1.162000*%
%ADD13R,1.600000X1.150000*%
%ADD14R,1.600000X1.300000*%
%ADD15R,0.920000X1.600000*%
%ADD16R,2.150000X3.380000*%
%ADD17R,0.960000X1.670000*%
%ADD18C,2.400000*%
G04 APERTURE END LIST*
D10*
D11*
X147610000Y-117621000D03*
X147610000Y-120396000D03*
X147610000Y-123171000D03*
D12*
X143800000Y-123108000D03*
X139600000Y-123108000D03*
X135400000Y-123108000D03*
X131200000Y-123108000D03*
X148000000Y-114708000D03*
X131200000Y-114708000D03*
X127000000Y-114708000D03*
X148000000Y-110508000D03*
X135400000Y-110508000D03*
X131200000Y-110508000D03*
X127000000Y-110508000D03*
X148000000Y-106308000D03*
X139600000Y-106308000D03*
X135400000Y-106308000D03*
X131200000Y-106308000D03*
X127000000Y-106308000D03*
X148000000Y-102108000D03*
X139600000Y-102108000D03*
X135400000Y-102108000D03*
X131200000Y-102108000D03*
D11*
X127036000Y-117621000D03*
X127036000Y-120396000D03*
X127036000Y-123171000D03*
D13*
X135316000Y-120396000D03*
X133416000Y-120396000D03*
X140396000Y-120396000D03*
X138496000Y-120396000D03*
X140782000Y-114808000D03*
X142682000Y-114808000D03*
X140782000Y-112522000D03*
X142682000Y-112522000D03*
X140782000Y-109728000D03*
X142682000Y-109728000D03*
D14*
X142832000Y-116840000D03*
X140632000Y-116840000D03*
D15*
X138406000Y-116932000D03*
D16*
X136906000Y-114772000D03*
D17*
X136906000Y-116897000D03*
D15*
X135406000Y-116932000D03*
D18*
X142748000Y-106934000D03*
X142748000Y-103124000D03*
D12*
X127000000Y-102108000D03*
M02*
