M48
;DRILL file {KiCad 4.0.7} date 11/03/17 21:56:06
;FORMAT={-:-/ absolute / metric / decimal}
FMAT,2
METRIC,TZ
T1C0.381
T2C1.000
%
G90
G05
M71
T1
X127.Y-102.108
X127.Y-106.308
X127.Y-110.508
X127.Y-114.708
X131.2Y-102.108
X131.2Y-106.308
X131.2Y-110.508
X131.2Y-114.708
X131.2Y-123.108
X135.4Y-102.108
X135.4Y-106.308
X135.4Y-110.508
X135.4Y-123.108
X139.6Y-102.108
X139.6Y-106.308
X139.6Y-123.108
X143.8Y-123.108
X148.Y-102.108
X148.Y-106.308
X148.Y-110.508
X148.Y-114.708
T2
X142.748Y-103.124
X142.748Y-106.934
T0
M30
