G04 #@! TF.FileFunction,Legend,Top*
%FSLAX46Y46*%
G04 Gerber Fmt 4.6, Leading zero omitted, Abs format (unit mm)*
G04 Created by KiCad (PCBNEW 4.0.7) date 11/03/17 21:56:08*
%MOMM*%
%LPD*%
G01*
G04 APERTURE LIST*
%ADD10C,0.100000*%
%ADD11C,0.150000*%
%ADD12C,0.120000*%
G04 APERTURE END LIST*
D10*
D11*
X145360000Y-125246000D02*
X145360000Y-115546000D01*
X149860000Y-115546000D02*
X145360000Y-115546000D01*
X149860000Y-125246000D02*
X145360000Y-125246000D01*
X149860000Y-125246000D02*
X149860000Y-115546000D01*
X124786000Y-125246000D02*
X124786000Y-115546000D01*
X129286000Y-115546000D02*
X124786000Y-115546000D01*
X129286000Y-125246000D02*
X124786000Y-125246000D01*
X129286000Y-125246000D02*
X129286000Y-115546000D01*
D12*
X134716000Y-120996000D02*
X134016000Y-120996000D01*
X134016000Y-119796000D02*
X134716000Y-119796000D01*
X139796000Y-120996000D02*
X139096000Y-120996000D01*
X139096000Y-119796000D02*
X139796000Y-119796000D01*
X141382000Y-114208000D02*
X142082000Y-114208000D01*
X142082000Y-115408000D02*
X141382000Y-115408000D01*
X141382000Y-111922000D02*
X142082000Y-111922000D01*
X142082000Y-113122000D02*
X141382000Y-113122000D01*
X141382000Y-109128000D02*
X142082000Y-109128000D01*
X142082000Y-110328000D02*
X141382000Y-110328000D01*
X141232000Y-116160000D02*
X142232000Y-116160000D01*
X142232000Y-117520000D02*
X141232000Y-117520000D01*
D11*
X139206000Y-113732000D02*
X134606000Y-113732000D01*
X134606000Y-116332000D02*
X134606000Y-113732000D01*
X139206000Y-116332000D02*
X139206000Y-113732000D01*
X139206000Y-116332000D02*
X134606000Y-116332000D01*
X144148000Y-106934000D02*
G75*
G03X144148000Y-106934000I-1400000J0D01*
G01*
X144148000Y-103124000D02*
G75*
G03X144148000Y-103124000I-1400000J0D01*
G01*
X143978381Y-121157905D02*
X144787905Y-121157905D01*
X144883143Y-121110286D01*
X144930762Y-121062667D01*
X144978381Y-120967429D01*
X144978381Y-120776952D01*
X144930762Y-120681714D01*
X144883143Y-120634095D01*
X144787905Y-120586476D01*
X143978381Y-120586476D01*
X143978381Y-120205524D02*
X143978381Y-119586476D01*
X144359333Y-119919810D01*
X144359333Y-119776952D01*
X144406952Y-119681714D01*
X144454571Y-119634095D01*
X144549810Y-119586476D01*
X144787905Y-119586476D01*
X144883143Y-119634095D01*
X144930762Y-119681714D01*
X144978381Y-119776952D01*
X144978381Y-120062667D01*
X144930762Y-120157905D01*
X144883143Y-120205524D01*
X129754381Y-121157905D02*
X130563905Y-121157905D01*
X130659143Y-121110286D01*
X130706762Y-121062667D01*
X130754381Y-120967429D01*
X130754381Y-120776952D01*
X130706762Y-120681714D01*
X130659143Y-120634095D01*
X130563905Y-120586476D01*
X129754381Y-120586476D01*
X129849619Y-120157905D02*
X129802000Y-120110286D01*
X129754381Y-120015048D01*
X129754381Y-119776952D01*
X129802000Y-119681714D01*
X129849619Y-119634095D01*
X129944857Y-119586476D01*
X130040095Y-119586476D01*
X130182952Y-119634095D01*
X130754381Y-120205524D01*
X130754381Y-119586476D01*
X134199334Y-122003143D02*
X134151715Y-122050762D01*
X134008858Y-122098381D01*
X133913620Y-122098381D01*
X133770762Y-122050762D01*
X133675524Y-121955524D01*
X133627905Y-121860286D01*
X133580286Y-121669810D01*
X133580286Y-121526952D01*
X133627905Y-121336476D01*
X133675524Y-121241238D01*
X133770762Y-121146000D01*
X133913620Y-121098381D01*
X134008858Y-121098381D01*
X134151715Y-121146000D01*
X134199334Y-121193619D01*
X135151715Y-122098381D02*
X134580286Y-122098381D01*
X134866000Y-122098381D02*
X134866000Y-121098381D01*
X134770762Y-121241238D01*
X134675524Y-121336476D01*
X134580286Y-121384095D01*
X139279334Y-122003143D02*
X139231715Y-122050762D01*
X139088858Y-122098381D01*
X138993620Y-122098381D01*
X138850762Y-122050762D01*
X138755524Y-121955524D01*
X138707905Y-121860286D01*
X138660286Y-121669810D01*
X138660286Y-121526952D01*
X138707905Y-121336476D01*
X138755524Y-121241238D01*
X138850762Y-121146000D01*
X138993620Y-121098381D01*
X139088858Y-121098381D01*
X139231715Y-121146000D01*
X139279334Y-121193619D01*
X139660286Y-121193619D02*
X139707905Y-121146000D01*
X139803143Y-121098381D01*
X140041239Y-121098381D01*
X140136477Y-121146000D01*
X140184096Y-121193619D01*
X140231715Y-121288857D01*
X140231715Y-121384095D01*
X140184096Y-121526952D01*
X139612667Y-122098381D01*
X140231715Y-122098381D01*
X144359334Y-115673143D02*
X144311715Y-115720762D01*
X144168858Y-115768381D01*
X144073620Y-115768381D01*
X143930762Y-115720762D01*
X143835524Y-115625524D01*
X143787905Y-115530286D01*
X143740286Y-115339810D01*
X143740286Y-115196952D01*
X143787905Y-115006476D01*
X143835524Y-114911238D01*
X143930762Y-114816000D01*
X144073620Y-114768381D01*
X144168858Y-114768381D01*
X144311715Y-114816000D01*
X144359334Y-114863619D01*
X145216477Y-115101714D02*
X145216477Y-115768381D01*
X144978381Y-114720762D02*
X144740286Y-115435048D01*
X145359334Y-115435048D01*
X144359334Y-113641143D02*
X144311715Y-113688762D01*
X144168858Y-113736381D01*
X144073620Y-113736381D01*
X143930762Y-113688762D01*
X143835524Y-113593524D01*
X143787905Y-113498286D01*
X143740286Y-113307810D01*
X143740286Y-113164952D01*
X143787905Y-112974476D01*
X143835524Y-112879238D01*
X143930762Y-112784000D01*
X144073620Y-112736381D01*
X144168858Y-112736381D01*
X144311715Y-112784000D01*
X144359334Y-112831619D01*
X145264096Y-112736381D02*
X144787905Y-112736381D01*
X144740286Y-113212571D01*
X144787905Y-113164952D01*
X144883143Y-113117333D01*
X145121239Y-113117333D01*
X145216477Y-113164952D01*
X145264096Y-113212571D01*
X145311715Y-113307810D01*
X145311715Y-113545905D01*
X145264096Y-113641143D01*
X145216477Y-113688762D01*
X145121239Y-113736381D01*
X144883143Y-113736381D01*
X144787905Y-113688762D01*
X144740286Y-113641143D01*
X144105334Y-111101143D02*
X144057715Y-111148762D01*
X143914858Y-111196381D01*
X143819620Y-111196381D01*
X143676762Y-111148762D01*
X143581524Y-111053524D01*
X143533905Y-110958286D01*
X143486286Y-110767810D01*
X143486286Y-110624952D01*
X143533905Y-110434476D01*
X143581524Y-110339238D01*
X143676762Y-110244000D01*
X143819620Y-110196381D01*
X143914858Y-110196381D01*
X144057715Y-110244000D01*
X144105334Y-110291619D01*
X144962477Y-110196381D02*
X144772000Y-110196381D01*
X144676762Y-110244000D01*
X144629143Y-110291619D01*
X144533905Y-110434476D01*
X144486286Y-110624952D01*
X144486286Y-111005905D01*
X144533905Y-111101143D01*
X144581524Y-111148762D01*
X144676762Y-111196381D01*
X144867239Y-111196381D01*
X144962477Y-111148762D01*
X145010096Y-111101143D01*
X145057715Y-111005905D01*
X145057715Y-110767810D01*
X145010096Y-110672571D01*
X144962477Y-110624952D01*
X144867239Y-110577333D01*
X144676762Y-110577333D01*
X144581524Y-110624952D01*
X144533905Y-110672571D01*
X144486286Y-110767810D01*
X144613334Y-117292381D02*
X144137143Y-117292381D01*
X144137143Y-116292381D01*
X145470477Y-117292381D02*
X144899048Y-117292381D01*
X145184762Y-117292381D02*
X145184762Y-116292381D01*
X145089524Y-116435238D01*
X144994286Y-116530476D01*
X144899048Y-116578095D01*
X134112095Y-112482381D02*
X134112095Y-113291905D01*
X134159714Y-113387143D01*
X134207333Y-113434762D01*
X134302571Y-113482381D01*
X134493048Y-113482381D01*
X134588286Y-113434762D01*
X134635905Y-113387143D01*
X134683524Y-113291905D01*
X134683524Y-112482381D01*
X135683524Y-113482381D02*
X135112095Y-113482381D01*
X135397809Y-113482381D02*
X135397809Y-112482381D01*
X135302571Y-112625238D01*
X135207333Y-112720476D01*
X135112095Y-112768095D01*
X143764095Y-105116381D02*
X143764095Y-105925905D01*
X143811714Y-106021143D01*
X143859333Y-106068762D01*
X143954571Y-106116381D01*
X144145048Y-106116381D01*
X144240286Y-106068762D01*
X144287905Y-106021143D01*
X144335524Y-105925905D01*
X144335524Y-105116381D01*
X145240286Y-105449714D02*
X145240286Y-106116381D01*
X145002190Y-105068762D02*
X144764095Y-105783048D01*
X145383143Y-105783048D01*
X144272095Y-103084381D02*
X144272095Y-103893905D01*
X144319714Y-103989143D01*
X144367333Y-104036762D01*
X144462571Y-104084381D01*
X144653048Y-104084381D01*
X144748286Y-104036762D01*
X144795905Y-103989143D01*
X144843524Y-103893905D01*
X144843524Y-103084381D01*
X145795905Y-103084381D02*
X145319714Y-103084381D01*
X145272095Y-103560571D01*
X145319714Y-103512952D01*
X145414952Y-103465333D01*
X145653048Y-103465333D01*
X145748286Y-103512952D01*
X145795905Y-103560571D01*
X145843524Y-103655810D01*
X145843524Y-103893905D01*
X145795905Y-103989143D01*
X145748286Y-104036762D01*
X145653048Y-104084381D01*
X145414952Y-104084381D01*
X145319714Y-104036762D01*
X145272095Y-103989143D01*
M02*
