G04 #@! TF.FileFunction,Copper,L1,Top,Signal*
%FSLAX46Y46*%
G04 Gerber Fmt 4.6, Leading zero omitted, Abs format (unit mm)*
G04 Created by KiCad (PCBNEW 4.0.7) date 11/03/17 21:56:08*
%MOMM*%
%LPD*%
G01*
G04 APERTURE LIST*
%ADD10C,0.100000*%
%ADD11R,4.500000X1.400000*%
%ADD12C,0.762000*%
%ADD13R,1.200000X0.750000*%
%ADD14R,1.200000X0.900000*%
%ADD15R,0.520000X1.200000*%
%ADD16R,1.750000X2.980000*%
%ADD17R,0.560000X1.270000*%
%ADD18C,2.000000*%
%ADD19C,0.939800*%
%ADD20C,1.400000*%
%ADD21C,0.175000*%
G04 APERTURE END LIST*
D10*
D11*
X147610000Y-117621000D03*
X147610000Y-120396000D03*
X147610000Y-123171000D03*
D12*
X143800000Y-123108000D03*
X139600000Y-123108000D03*
X135400000Y-123108000D03*
X131200000Y-123108000D03*
X148000000Y-114708000D03*
X131200000Y-114708000D03*
X127000000Y-114708000D03*
X148000000Y-110508000D03*
X135400000Y-110508000D03*
X131200000Y-110508000D03*
X127000000Y-110508000D03*
X148000000Y-106308000D03*
X139600000Y-106308000D03*
X135400000Y-106308000D03*
X131200000Y-106308000D03*
X127000000Y-106308000D03*
X148000000Y-102108000D03*
X139600000Y-102108000D03*
X135400000Y-102108000D03*
X131200000Y-102108000D03*
D11*
X127036000Y-117621000D03*
X127036000Y-120396000D03*
X127036000Y-123171000D03*
D13*
X135316000Y-120396000D03*
X133416000Y-120396000D03*
X140396000Y-120396000D03*
X138496000Y-120396000D03*
X140782000Y-114808000D03*
X142682000Y-114808000D03*
X140782000Y-112522000D03*
X142682000Y-112522000D03*
X140782000Y-109728000D03*
X142682000Y-109728000D03*
D14*
X142832000Y-116840000D03*
X140632000Y-116840000D03*
D15*
X138406000Y-116932000D03*
D16*
X136906000Y-114772000D03*
D17*
X136906000Y-116897000D03*
D15*
X135406000Y-116932000D03*
D18*
X142748000Y-106934000D03*
X142748000Y-103124000D03*
D12*
X127000000Y-102108000D03*
D19*
X135406000Y-120306000D02*
X135316000Y-120396000D01*
X135406000Y-116932000D02*
X135406000Y-120306000D01*
D20*
X126782000Y-120396000D02*
X132842000Y-120396000D01*
X132842000Y-120396000D02*
X133416000Y-120396000D01*
X148118000Y-120396000D02*
X140396000Y-120396000D01*
D19*
X140632000Y-116840000D02*
X138498000Y-116840000D01*
X138496000Y-116842000D02*
X138496000Y-120396000D01*
X138498000Y-116840000D02*
X138496000Y-116842000D01*
X142682000Y-107038000D02*
X142682000Y-112522000D01*
X142682000Y-112522000D02*
X142682000Y-114808000D01*
X142682000Y-114808000D02*
X142832000Y-114958000D01*
X142832000Y-114958000D02*
X142832000Y-116840000D01*
D21*
G36*
X149610500Y-116653358D02*
X145360000Y-116653358D01*
X145262724Y-116671662D01*
X145173381Y-116729152D01*
X145113444Y-116816872D01*
X145092358Y-116921000D01*
X145092358Y-118321000D01*
X145110662Y-118418276D01*
X145168152Y-118507619D01*
X145255872Y-118567556D01*
X145360000Y-118588642D01*
X149610500Y-118588642D01*
X149610500Y-119428358D01*
X145360000Y-119428358D01*
X145332673Y-119433500D01*
X140396000Y-119433500D01*
X140027667Y-119506766D01*
X139715410Y-119715410D01*
X139662059Y-119795255D01*
X139609381Y-119829152D01*
X139549444Y-119916872D01*
X139535810Y-119984200D01*
X139506766Y-120027667D01*
X139433500Y-120396000D01*
X139506766Y-120764333D01*
X139535076Y-120806701D01*
X139546662Y-120868276D01*
X139604152Y-120957619D01*
X139662601Y-120997556D01*
X139715410Y-121076590D01*
X140027667Y-121285234D01*
X140396000Y-121358500D01*
X145334608Y-121358500D01*
X145360000Y-121363642D01*
X149610500Y-121363642D01*
X149610500Y-122203358D01*
X145360000Y-122203358D01*
X145262724Y-122221662D01*
X145173381Y-122279152D01*
X145113444Y-122366872D01*
X145092358Y-122471000D01*
X145092358Y-123871000D01*
X145110662Y-123968276D01*
X145168152Y-124057619D01*
X145255872Y-124117556D01*
X145360000Y-124138642D01*
X149610500Y-124138642D01*
X149610500Y-125010500D01*
X124989500Y-125010500D01*
X124989500Y-124138642D01*
X129286000Y-124138642D01*
X129383276Y-124120338D01*
X129472619Y-124062848D01*
X129532556Y-123975128D01*
X129553642Y-123871000D01*
X129553642Y-123235439D01*
X130556388Y-123235439D01*
X130654149Y-123472037D01*
X130835011Y-123653215D01*
X131071438Y-123751388D01*
X131327439Y-123751612D01*
X131564037Y-123653851D01*
X131745215Y-123472989D01*
X131843388Y-123236562D01*
X131843388Y-123235439D01*
X134756388Y-123235439D01*
X134854149Y-123472037D01*
X135035011Y-123653215D01*
X135271438Y-123751388D01*
X135527439Y-123751612D01*
X135764037Y-123653851D01*
X135945215Y-123472989D01*
X136043388Y-123236562D01*
X136043388Y-123235439D01*
X138956388Y-123235439D01*
X139054149Y-123472037D01*
X139235011Y-123653215D01*
X139471438Y-123751388D01*
X139727439Y-123751612D01*
X139964037Y-123653851D01*
X140145215Y-123472989D01*
X140243388Y-123236562D01*
X140243388Y-123235439D01*
X143156388Y-123235439D01*
X143254149Y-123472037D01*
X143435011Y-123653215D01*
X143671438Y-123751388D01*
X143927439Y-123751612D01*
X144164037Y-123653851D01*
X144345215Y-123472989D01*
X144443388Y-123236562D01*
X144443612Y-122980561D01*
X144345851Y-122743963D01*
X144164989Y-122562785D01*
X143928562Y-122464612D01*
X143672561Y-122464388D01*
X143435963Y-122562149D01*
X143254785Y-122743011D01*
X143156612Y-122979438D01*
X143156388Y-123235439D01*
X140243388Y-123235439D01*
X140243612Y-122980561D01*
X140145851Y-122743963D01*
X139964989Y-122562785D01*
X139728562Y-122464612D01*
X139472561Y-122464388D01*
X139235963Y-122562149D01*
X139054785Y-122743011D01*
X138956612Y-122979438D01*
X138956388Y-123235439D01*
X136043388Y-123235439D01*
X136043612Y-122980561D01*
X135945851Y-122743963D01*
X135764989Y-122562785D01*
X135528562Y-122464612D01*
X135272561Y-122464388D01*
X135035963Y-122562149D01*
X134854785Y-122743011D01*
X134756612Y-122979438D01*
X134756388Y-123235439D01*
X131843388Y-123235439D01*
X131843612Y-122980561D01*
X131745851Y-122743963D01*
X131564989Y-122562785D01*
X131328562Y-122464612D01*
X131072561Y-122464388D01*
X130835963Y-122562149D01*
X130654785Y-122743011D01*
X130556612Y-122979438D01*
X130556388Y-123235439D01*
X129553642Y-123235439D01*
X129553642Y-122471000D01*
X129535338Y-122373724D01*
X129477848Y-122284381D01*
X129390128Y-122224444D01*
X129286000Y-122203358D01*
X124989500Y-122203358D01*
X124989500Y-121363642D01*
X129286000Y-121363642D01*
X129313327Y-121358500D01*
X133416000Y-121358500D01*
X133784333Y-121285234D01*
X134096590Y-121076590D01*
X134149941Y-120996745D01*
X134202619Y-120962848D01*
X134262556Y-120875128D01*
X134276190Y-120807800D01*
X134305234Y-120764333D01*
X134378500Y-120396000D01*
X134305234Y-120027667D01*
X134300780Y-120021000D01*
X134448358Y-120021000D01*
X134448358Y-120771000D01*
X134466662Y-120868276D01*
X134524152Y-120957619D01*
X134611872Y-121017556D01*
X134716000Y-121038642D01*
X134984828Y-121038642D01*
X135035723Y-121072649D01*
X135316000Y-121128400D01*
X135596277Y-121072649D01*
X135647172Y-121038642D01*
X135916000Y-121038642D01*
X136013276Y-121020338D01*
X136102619Y-120962848D01*
X136162556Y-120875128D01*
X136183642Y-120771000D01*
X136183642Y-120021000D01*
X137628358Y-120021000D01*
X137628358Y-120771000D01*
X137646662Y-120868276D01*
X137704152Y-120957619D01*
X137791872Y-121017556D01*
X137896000Y-121038642D01*
X138164828Y-121038642D01*
X138215723Y-121072649D01*
X138496000Y-121128400D01*
X138776277Y-121072649D01*
X138827172Y-121038642D01*
X139096000Y-121038642D01*
X139193276Y-121020338D01*
X139282619Y-120962848D01*
X139342556Y-120875128D01*
X139363642Y-120771000D01*
X139363642Y-120021000D01*
X139345338Y-119923724D01*
X139287848Y-119834381D01*
X139228400Y-119793762D01*
X139228400Y-117572400D01*
X140632000Y-117572400D01*
X140706193Y-117557642D01*
X141232000Y-117557642D01*
X141329276Y-117539338D01*
X141418619Y-117481848D01*
X141478556Y-117394128D01*
X141499642Y-117290000D01*
X141499642Y-116390000D01*
X141481338Y-116292724D01*
X141423848Y-116203381D01*
X141336128Y-116143444D01*
X141232000Y-116122358D01*
X140706193Y-116122358D01*
X140632000Y-116107600D01*
X138802554Y-116107600D01*
X138770128Y-116085444D01*
X138666000Y-116064358D01*
X138146000Y-116064358D01*
X138048724Y-116082662D01*
X137959381Y-116140152D01*
X137899444Y-116227872D01*
X137878358Y-116332000D01*
X137878358Y-116473412D01*
X137819351Y-116561723D01*
X137763600Y-116842000D01*
X137763600Y-119794263D01*
X137709381Y-119829152D01*
X137649444Y-119916872D01*
X137628358Y-120021000D01*
X136183642Y-120021000D01*
X136165338Y-119923724D01*
X136138400Y-119881861D01*
X136138400Y-116932000D01*
X136082649Y-116651723D01*
X135933642Y-116428717D01*
X135933642Y-116332000D01*
X135915338Y-116234724D01*
X135857848Y-116145381D01*
X135770128Y-116085444D01*
X135666000Y-116064358D01*
X135146000Y-116064358D01*
X135048724Y-116082662D01*
X134959381Y-116140152D01*
X134899444Y-116227872D01*
X134878358Y-116332000D01*
X134878358Y-116428717D01*
X134729351Y-116651723D01*
X134673600Y-116932000D01*
X134673600Y-119761336D01*
X134618724Y-119771662D01*
X134529381Y-119829152D01*
X134469444Y-119916872D01*
X134448358Y-120021000D01*
X134300780Y-120021000D01*
X134276924Y-119985299D01*
X134265338Y-119923724D01*
X134207848Y-119834381D01*
X134149399Y-119794444D01*
X134096590Y-119715410D01*
X133784333Y-119506766D01*
X133416000Y-119433500D01*
X129311392Y-119433500D01*
X129286000Y-119428358D01*
X124989500Y-119428358D01*
X124989500Y-118588642D01*
X129286000Y-118588642D01*
X129383276Y-118570338D01*
X129472619Y-118512848D01*
X129532556Y-118425128D01*
X129553642Y-118321000D01*
X129553642Y-116921000D01*
X129535338Y-116823724D01*
X129477848Y-116734381D01*
X129390128Y-116674444D01*
X129286000Y-116653358D01*
X124989500Y-116653358D01*
X124989500Y-114835439D01*
X126356388Y-114835439D01*
X126454149Y-115072037D01*
X126635011Y-115253215D01*
X126871438Y-115351388D01*
X127127439Y-115351612D01*
X127364037Y-115253851D01*
X127545215Y-115072989D01*
X127643388Y-114836562D01*
X127643388Y-114835439D01*
X130556388Y-114835439D01*
X130654149Y-115072037D01*
X130835011Y-115253215D01*
X131071438Y-115351388D01*
X131327439Y-115351612D01*
X131564037Y-115253851D01*
X131745215Y-115072989D01*
X131843388Y-114836562D01*
X131843612Y-114580561D01*
X131745851Y-114343963D01*
X131564989Y-114162785D01*
X131328562Y-114064612D01*
X131072561Y-114064388D01*
X130835963Y-114162149D01*
X130654785Y-114343011D01*
X130556612Y-114579438D01*
X130556388Y-114835439D01*
X127643388Y-114835439D01*
X127643612Y-114580561D01*
X127545851Y-114343963D01*
X127364989Y-114162785D01*
X127128562Y-114064612D01*
X126872561Y-114064388D01*
X126635963Y-114162149D01*
X126454785Y-114343011D01*
X126356612Y-114579438D01*
X126356388Y-114835439D01*
X124989500Y-114835439D01*
X124989500Y-110635439D01*
X126356388Y-110635439D01*
X126454149Y-110872037D01*
X126635011Y-111053215D01*
X126871438Y-111151388D01*
X127127439Y-111151612D01*
X127364037Y-111053851D01*
X127545215Y-110872989D01*
X127643388Y-110636562D01*
X127643388Y-110635439D01*
X130556388Y-110635439D01*
X130654149Y-110872037D01*
X130835011Y-111053215D01*
X131071438Y-111151388D01*
X131327439Y-111151612D01*
X131564037Y-111053851D01*
X131745215Y-110872989D01*
X131843388Y-110636562D01*
X131843388Y-110635439D01*
X134756388Y-110635439D01*
X134854149Y-110872037D01*
X135035011Y-111053215D01*
X135271438Y-111151388D01*
X135527439Y-111151612D01*
X135764037Y-111053851D01*
X135945215Y-110872989D01*
X136043388Y-110636562D01*
X136043612Y-110380561D01*
X135945851Y-110143963D01*
X135764989Y-109962785D01*
X135528562Y-109864612D01*
X135272561Y-109864388D01*
X135035963Y-109962149D01*
X134854785Y-110143011D01*
X134756612Y-110379438D01*
X134756388Y-110635439D01*
X131843388Y-110635439D01*
X131843612Y-110380561D01*
X131745851Y-110143963D01*
X131564989Y-109962785D01*
X131328562Y-109864612D01*
X131072561Y-109864388D01*
X130835963Y-109962149D01*
X130654785Y-110143011D01*
X130556612Y-110379438D01*
X130556388Y-110635439D01*
X127643388Y-110635439D01*
X127643612Y-110380561D01*
X127545851Y-110143963D01*
X127364989Y-109962785D01*
X127128562Y-109864612D01*
X126872561Y-109864388D01*
X126635963Y-109962149D01*
X126454785Y-110143011D01*
X126356612Y-110379438D01*
X126356388Y-110635439D01*
X124989500Y-110635439D01*
X124989500Y-107184025D01*
X141485281Y-107184025D01*
X141677080Y-107648215D01*
X141949600Y-107921210D01*
X141949600Y-109126263D01*
X141895381Y-109161152D01*
X141835444Y-109248872D01*
X141814358Y-109353000D01*
X141814358Y-110103000D01*
X141832662Y-110200276D01*
X141890152Y-110289619D01*
X141949600Y-110330238D01*
X141949600Y-111920263D01*
X141895381Y-111955152D01*
X141835444Y-112042872D01*
X141814358Y-112147000D01*
X141814358Y-112897000D01*
X141832662Y-112994276D01*
X141890152Y-113083619D01*
X141949600Y-113124238D01*
X141949600Y-114206263D01*
X141895381Y-114241152D01*
X141835444Y-114328872D01*
X141814358Y-114433000D01*
X141814358Y-115183000D01*
X141832662Y-115280276D01*
X141890152Y-115369619D01*
X141977872Y-115429556D01*
X142082000Y-115450642D01*
X142099600Y-115450642D01*
X142099600Y-116163263D01*
X142045381Y-116198152D01*
X141985444Y-116285872D01*
X141964358Y-116390000D01*
X141964358Y-117290000D01*
X141982662Y-117387276D01*
X142040152Y-117476619D01*
X142127872Y-117536556D01*
X142232000Y-117557642D01*
X142757807Y-117557642D01*
X142832000Y-117572400D01*
X142906193Y-117557642D01*
X143432000Y-117557642D01*
X143529276Y-117539338D01*
X143618619Y-117481848D01*
X143678556Y-117394128D01*
X143699642Y-117290000D01*
X143699642Y-116390000D01*
X143681338Y-116292724D01*
X143623848Y-116203381D01*
X143564400Y-116162762D01*
X143564400Y-114958000D01*
X143549642Y-114883807D01*
X143549642Y-114835439D01*
X147356388Y-114835439D01*
X147454149Y-115072037D01*
X147635011Y-115253215D01*
X147871438Y-115351388D01*
X148127439Y-115351612D01*
X148364037Y-115253851D01*
X148545215Y-115072989D01*
X148643388Y-114836562D01*
X148643612Y-114580561D01*
X148545851Y-114343963D01*
X148364989Y-114162785D01*
X148128562Y-114064612D01*
X147872561Y-114064388D01*
X147635963Y-114162149D01*
X147454785Y-114343011D01*
X147356612Y-114579438D01*
X147356388Y-114835439D01*
X143549642Y-114835439D01*
X143549642Y-114433000D01*
X143531338Y-114335724D01*
X143473848Y-114246381D01*
X143414400Y-114205762D01*
X143414400Y-113123737D01*
X143468619Y-113088848D01*
X143528556Y-113001128D01*
X143549642Y-112897000D01*
X143549642Y-112147000D01*
X143531338Y-112049724D01*
X143473848Y-111960381D01*
X143414400Y-111919762D01*
X143414400Y-110635439D01*
X147356388Y-110635439D01*
X147454149Y-110872037D01*
X147635011Y-111053215D01*
X147871438Y-111151388D01*
X148127439Y-111151612D01*
X148364037Y-111053851D01*
X148545215Y-110872989D01*
X148643388Y-110636562D01*
X148643612Y-110380561D01*
X148545851Y-110143963D01*
X148364989Y-109962785D01*
X148128562Y-109864612D01*
X147872561Y-109864388D01*
X147635963Y-109962149D01*
X147454785Y-110143011D01*
X147356612Y-110379438D01*
X147356388Y-110635439D01*
X143414400Y-110635439D01*
X143414400Y-110329737D01*
X143468619Y-110294848D01*
X143528556Y-110207128D01*
X143549642Y-110103000D01*
X143549642Y-109353000D01*
X143531338Y-109255724D01*
X143473848Y-109166381D01*
X143414400Y-109125762D01*
X143414400Y-108024677D01*
X143462215Y-108004920D01*
X143817671Y-107650083D01*
X144010281Y-107186229D01*
X144010719Y-106683975D01*
X143908027Y-106435439D01*
X147356388Y-106435439D01*
X147454149Y-106672037D01*
X147635011Y-106853215D01*
X147871438Y-106951388D01*
X148127439Y-106951612D01*
X148364037Y-106853851D01*
X148545215Y-106672989D01*
X148643388Y-106436562D01*
X148643612Y-106180561D01*
X148545851Y-105943963D01*
X148364989Y-105762785D01*
X148128562Y-105664612D01*
X147872561Y-105664388D01*
X147635963Y-105762149D01*
X147454785Y-105943011D01*
X147356612Y-106179438D01*
X147356388Y-106435439D01*
X143908027Y-106435439D01*
X143818920Y-106219785D01*
X143464083Y-105864329D01*
X143000229Y-105671719D01*
X142497975Y-105671281D01*
X142033785Y-105863080D01*
X141678329Y-106217917D01*
X141485719Y-106681771D01*
X141485281Y-107184025D01*
X124989500Y-107184025D01*
X124989500Y-106435439D01*
X126356388Y-106435439D01*
X126454149Y-106672037D01*
X126635011Y-106853215D01*
X126871438Y-106951388D01*
X127127439Y-106951612D01*
X127364037Y-106853851D01*
X127545215Y-106672989D01*
X127643388Y-106436562D01*
X127643388Y-106435439D01*
X130556388Y-106435439D01*
X130654149Y-106672037D01*
X130835011Y-106853215D01*
X131071438Y-106951388D01*
X131327439Y-106951612D01*
X131564037Y-106853851D01*
X131745215Y-106672989D01*
X131843388Y-106436562D01*
X131843388Y-106435439D01*
X134756388Y-106435439D01*
X134854149Y-106672037D01*
X135035011Y-106853215D01*
X135271438Y-106951388D01*
X135527439Y-106951612D01*
X135764037Y-106853851D01*
X135945215Y-106672989D01*
X136043388Y-106436562D01*
X136043388Y-106435439D01*
X138956388Y-106435439D01*
X139054149Y-106672037D01*
X139235011Y-106853215D01*
X139471438Y-106951388D01*
X139727439Y-106951612D01*
X139964037Y-106853851D01*
X140145215Y-106672989D01*
X140243388Y-106436562D01*
X140243612Y-106180561D01*
X140145851Y-105943963D01*
X139964989Y-105762785D01*
X139728562Y-105664612D01*
X139472561Y-105664388D01*
X139235963Y-105762149D01*
X139054785Y-105943011D01*
X138956612Y-106179438D01*
X138956388Y-106435439D01*
X136043388Y-106435439D01*
X136043612Y-106180561D01*
X135945851Y-105943963D01*
X135764989Y-105762785D01*
X135528562Y-105664612D01*
X135272561Y-105664388D01*
X135035963Y-105762149D01*
X134854785Y-105943011D01*
X134756612Y-106179438D01*
X134756388Y-106435439D01*
X131843388Y-106435439D01*
X131843612Y-106180561D01*
X131745851Y-105943963D01*
X131564989Y-105762785D01*
X131328562Y-105664612D01*
X131072561Y-105664388D01*
X130835963Y-105762149D01*
X130654785Y-105943011D01*
X130556612Y-106179438D01*
X130556388Y-106435439D01*
X127643388Y-106435439D01*
X127643612Y-106180561D01*
X127545851Y-105943963D01*
X127364989Y-105762785D01*
X127128562Y-105664612D01*
X126872561Y-105664388D01*
X126635963Y-105762149D01*
X126454785Y-105943011D01*
X126356612Y-106179438D01*
X126356388Y-106435439D01*
X124989500Y-106435439D01*
X124989500Y-102235439D01*
X126356388Y-102235439D01*
X126454149Y-102472037D01*
X126635011Y-102653215D01*
X126871438Y-102751388D01*
X127127439Y-102751612D01*
X127364037Y-102653851D01*
X127545215Y-102472989D01*
X127643388Y-102236562D01*
X127643388Y-102235439D01*
X130556388Y-102235439D01*
X130654149Y-102472037D01*
X130835011Y-102653215D01*
X131071438Y-102751388D01*
X131327439Y-102751612D01*
X131564037Y-102653851D01*
X131745215Y-102472989D01*
X131843388Y-102236562D01*
X131843388Y-102235439D01*
X134756388Y-102235439D01*
X134854149Y-102472037D01*
X135035011Y-102653215D01*
X135271438Y-102751388D01*
X135527439Y-102751612D01*
X135764037Y-102653851D01*
X135945215Y-102472989D01*
X136043388Y-102236562D01*
X136043388Y-102235439D01*
X138956388Y-102235439D01*
X139054149Y-102472037D01*
X139235011Y-102653215D01*
X139471438Y-102751388D01*
X139727439Y-102751612D01*
X139964037Y-102653851D01*
X140145215Y-102472989D01*
X140243388Y-102236562D01*
X140243388Y-102235439D01*
X147356388Y-102235439D01*
X147454149Y-102472037D01*
X147635011Y-102653215D01*
X147871438Y-102751388D01*
X148127439Y-102751612D01*
X148364037Y-102653851D01*
X148545215Y-102472989D01*
X148643388Y-102236562D01*
X148643612Y-101980561D01*
X148545851Y-101743963D01*
X148364989Y-101562785D01*
X148128562Y-101464612D01*
X147872561Y-101464388D01*
X147635963Y-101562149D01*
X147454785Y-101743011D01*
X147356612Y-101979438D01*
X147356388Y-102235439D01*
X140243388Y-102235439D01*
X140243612Y-101980561D01*
X140145851Y-101743963D01*
X139964989Y-101562785D01*
X139728562Y-101464612D01*
X139472561Y-101464388D01*
X139235963Y-101562149D01*
X139054785Y-101743011D01*
X138956612Y-101979438D01*
X138956388Y-102235439D01*
X136043388Y-102235439D01*
X136043612Y-101980561D01*
X135945851Y-101743963D01*
X135764989Y-101562785D01*
X135528562Y-101464612D01*
X135272561Y-101464388D01*
X135035963Y-101562149D01*
X134854785Y-101743011D01*
X134756612Y-101979438D01*
X134756388Y-102235439D01*
X131843388Y-102235439D01*
X131843612Y-101980561D01*
X131745851Y-101743963D01*
X131564989Y-101562785D01*
X131328562Y-101464612D01*
X131072561Y-101464388D01*
X130835963Y-101562149D01*
X130654785Y-101743011D01*
X130556612Y-101979438D01*
X130556388Y-102235439D01*
X127643388Y-102235439D01*
X127643612Y-101980561D01*
X127545851Y-101743963D01*
X127364989Y-101562785D01*
X127128562Y-101464612D01*
X126872561Y-101464388D01*
X126635963Y-101562149D01*
X126454785Y-101743011D01*
X126356612Y-101979438D01*
X126356388Y-102235439D01*
X124989500Y-102235439D01*
X124989500Y-100389500D01*
X149610500Y-100389500D01*
X149610500Y-116653358D01*
X149610500Y-116653358D01*
G37*
X149610500Y-116653358D02*
X145360000Y-116653358D01*
X145262724Y-116671662D01*
X145173381Y-116729152D01*
X145113444Y-116816872D01*
X145092358Y-116921000D01*
X145092358Y-118321000D01*
X145110662Y-118418276D01*
X145168152Y-118507619D01*
X145255872Y-118567556D01*
X145360000Y-118588642D01*
X149610500Y-118588642D01*
X149610500Y-119428358D01*
X145360000Y-119428358D01*
X145332673Y-119433500D01*
X140396000Y-119433500D01*
X140027667Y-119506766D01*
X139715410Y-119715410D01*
X139662059Y-119795255D01*
X139609381Y-119829152D01*
X139549444Y-119916872D01*
X139535810Y-119984200D01*
X139506766Y-120027667D01*
X139433500Y-120396000D01*
X139506766Y-120764333D01*
X139535076Y-120806701D01*
X139546662Y-120868276D01*
X139604152Y-120957619D01*
X139662601Y-120997556D01*
X139715410Y-121076590D01*
X140027667Y-121285234D01*
X140396000Y-121358500D01*
X145334608Y-121358500D01*
X145360000Y-121363642D01*
X149610500Y-121363642D01*
X149610500Y-122203358D01*
X145360000Y-122203358D01*
X145262724Y-122221662D01*
X145173381Y-122279152D01*
X145113444Y-122366872D01*
X145092358Y-122471000D01*
X145092358Y-123871000D01*
X145110662Y-123968276D01*
X145168152Y-124057619D01*
X145255872Y-124117556D01*
X145360000Y-124138642D01*
X149610500Y-124138642D01*
X149610500Y-125010500D01*
X124989500Y-125010500D01*
X124989500Y-124138642D01*
X129286000Y-124138642D01*
X129383276Y-124120338D01*
X129472619Y-124062848D01*
X129532556Y-123975128D01*
X129553642Y-123871000D01*
X129553642Y-123235439D01*
X130556388Y-123235439D01*
X130654149Y-123472037D01*
X130835011Y-123653215D01*
X131071438Y-123751388D01*
X131327439Y-123751612D01*
X131564037Y-123653851D01*
X131745215Y-123472989D01*
X131843388Y-123236562D01*
X131843388Y-123235439D01*
X134756388Y-123235439D01*
X134854149Y-123472037D01*
X135035011Y-123653215D01*
X135271438Y-123751388D01*
X135527439Y-123751612D01*
X135764037Y-123653851D01*
X135945215Y-123472989D01*
X136043388Y-123236562D01*
X136043388Y-123235439D01*
X138956388Y-123235439D01*
X139054149Y-123472037D01*
X139235011Y-123653215D01*
X139471438Y-123751388D01*
X139727439Y-123751612D01*
X139964037Y-123653851D01*
X140145215Y-123472989D01*
X140243388Y-123236562D01*
X140243388Y-123235439D01*
X143156388Y-123235439D01*
X143254149Y-123472037D01*
X143435011Y-123653215D01*
X143671438Y-123751388D01*
X143927439Y-123751612D01*
X144164037Y-123653851D01*
X144345215Y-123472989D01*
X144443388Y-123236562D01*
X144443612Y-122980561D01*
X144345851Y-122743963D01*
X144164989Y-122562785D01*
X143928562Y-122464612D01*
X143672561Y-122464388D01*
X143435963Y-122562149D01*
X143254785Y-122743011D01*
X143156612Y-122979438D01*
X143156388Y-123235439D01*
X140243388Y-123235439D01*
X140243612Y-122980561D01*
X140145851Y-122743963D01*
X139964989Y-122562785D01*
X139728562Y-122464612D01*
X139472561Y-122464388D01*
X139235963Y-122562149D01*
X139054785Y-122743011D01*
X138956612Y-122979438D01*
X138956388Y-123235439D01*
X136043388Y-123235439D01*
X136043612Y-122980561D01*
X135945851Y-122743963D01*
X135764989Y-122562785D01*
X135528562Y-122464612D01*
X135272561Y-122464388D01*
X135035963Y-122562149D01*
X134854785Y-122743011D01*
X134756612Y-122979438D01*
X134756388Y-123235439D01*
X131843388Y-123235439D01*
X131843612Y-122980561D01*
X131745851Y-122743963D01*
X131564989Y-122562785D01*
X131328562Y-122464612D01*
X131072561Y-122464388D01*
X130835963Y-122562149D01*
X130654785Y-122743011D01*
X130556612Y-122979438D01*
X130556388Y-123235439D01*
X129553642Y-123235439D01*
X129553642Y-122471000D01*
X129535338Y-122373724D01*
X129477848Y-122284381D01*
X129390128Y-122224444D01*
X129286000Y-122203358D01*
X124989500Y-122203358D01*
X124989500Y-121363642D01*
X129286000Y-121363642D01*
X129313327Y-121358500D01*
X133416000Y-121358500D01*
X133784333Y-121285234D01*
X134096590Y-121076590D01*
X134149941Y-120996745D01*
X134202619Y-120962848D01*
X134262556Y-120875128D01*
X134276190Y-120807800D01*
X134305234Y-120764333D01*
X134378500Y-120396000D01*
X134305234Y-120027667D01*
X134300780Y-120021000D01*
X134448358Y-120021000D01*
X134448358Y-120771000D01*
X134466662Y-120868276D01*
X134524152Y-120957619D01*
X134611872Y-121017556D01*
X134716000Y-121038642D01*
X134984828Y-121038642D01*
X135035723Y-121072649D01*
X135316000Y-121128400D01*
X135596277Y-121072649D01*
X135647172Y-121038642D01*
X135916000Y-121038642D01*
X136013276Y-121020338D01*
X136102619Y-120962848D01*
X136162556Y-120875128D01*
X136183642Y-120771000D01*
X136183642Y-120021000D01*
X137628358Y-120021000D01*
X137628358Y-120771000D01*
X137646662Y-120868276D01*
X137704152Y-120957619D01*
X137791872Y-121017556D01*
X137896000Y-121038642D01*
X138164828Y-121038642D01*
X138215723Y-121072649D01*
X138496000Y-121128400D01*
X138776277Y-121072649D01*
X138827172Y-121038642D01*
X139096000Y-121038642D01*
X139193276Y-121020338D01*
X139282619Y-120962848D01*
X139342556Y-120875128D01*
X139363642Y-120771000D01*
X139363642Y-120021000D01*
X139345338Y-119923724D01*
X139287848Y-119834381D01*
X139228400Y-119793762D01*
X139228400Y-117572400D01*
X140632000Y-117572400D01*
X140706193Y-117557642D01*
X141232000Y-117557642D01*
X141329276Y-117539338D01*
X141418619Y-117481848D01*
X141478556Y-117394128D01*
X141499642Y-117290000D01*
X141499642Y-116390000D01*
X141481338Y-116292724D01*
X141423848Y-116203381D01*
X141336128Y-116143444D01*
X141232000Y-116122358D01*
X140706193Y-116122358D01*
X140632000Y-116107600D01*
X138802554Y-116107600D01*
X138770128Y-116085444D01*
X138666000Y-116064358D01*
X138146000Y-116064358D01*
X138048724Y-116082662D01*
X137959381Y-116140152D01*
X137899444Y-116227872D01*
X137878358Y-116332000D01*
X137878358Y-116473412D01*
X137819351Y-116561723D01*
X137763600Y-116842000D01*
X137763600Y-119794263D01*
X137709381Y-119829152D01*
X137649444Y-119916872D01*
X137628358Y-120021000D01*
X136183642Y-120021000D01*
X136165338Y-119923724D01*
X136138400Y-119881861D01*
X136138400Y-116932000D01*
X136082649Y-116651723D01*
X135933642Y-116428717D01*
X135933642Y-116332000D01*
X135915338Y-116234724D01*
X135857848Y-116145381D01*
X135770128Y-116085444D01*
X135666000Y-116064358D01*
X135146000Y-116064358D01*
X135048724Y-116082662D01*
X134959381Y-116140152D01*
X134899444Y-116227872D01*
X134878358Y-116332000D01*
X134878358Y-116428717D01*
X134729351Y-116651723D01*
X134673600Y-116932000D01*
X134673600Y-119761336D01*
X134618724Y-119771662D01*
X134529381Y-119829152D01*
X134469444Y-119916872D01*
X134448358Y-120021000D01*
X134300780Y-120021000D01*
X134276924Y-119985299D01*
X134265338Y-119923724D01*
X134207848Y-119834381D01*
X134149399Y-119794444D01*
X134096590Y-119715410D01*
X133784333Y-119506766D01*
X133416000Y-119433500D01*
X129311392Y-119433500D01*
X129286000Y-119428358D01*
X124989500Y-119428358D01*
X124989500Y-118588642D01*
X129286000Y-118588642D01*
X129383276Y-118570338D01*
X129472619Y-118512848D01*
X129532556Y-118425128D01*
X129553642Y-118321000D01*
X129553642Y-116921000D01*
X129535338Y-116823724D01*
X129477848Y-116734381D01*
X129390128Y-116674444D01*
X129286000Y-116653358D01*
X124989500Y-116653358D01*
X124989500Y-114835439D01*
X126356388Y-114835439D01*
X126454149Y-115072037D01*
X126635011Y-115253215D01*
X126871438Y-115351388D01*
X127127439Y-115351612D01*
X127364037Y-115253851D01*
X127545215Y-115072989D01*
X127643388Y-114836562D01*
X127643388Y-114835439D01*
X130556388Y-114835439D01*
X130654149Y-115072037D01*
X130835011Y-115253215D01*
X131071438Y-115351388D01*
X131327439Y-115351612D01*
X131564037Y-115253851D01*
X131745215Y-115072989D01*
X131843388Y-114836562D01*
X131843612Y-114580561D01*
X131745851Y-114343963D01*
X131564989Y-114162785D01*
X131328562Y-114064612D01*
X131072561Y-114064388D01*
X130835963Y-114162149D01*
X130654785Y-114343011D01*
X130556612Y-114579438D01*
X130556388Y-114835439D01*
X127643388Y-114835439D01*
X127643612Y-114580561D01*
X127545851Y-114343963D01*
X127364989Y-114162785D01*
X127128562Y-114064612D01*
X126872561Y-114064388D01*
X126635963Y-114162149D01*
X126454785Y-114343011D01*
X126356612Y-114579438D01*
X126356388Y-114835439D01*
X124989500Y-114835439D01*
X124989500Y-110635439D01*
X126356388Y-110635439D01*
X126454149Y-110872037D01*
X126635011Y-111053215D01*
X126871438Y-111151388D01*
X127127439Y-111151612D01*
X127364037Y-111053851D01*
X127545215Y-110872989D01*
X127643388Y-110636562D01*
X127643388Y-110635439D01*
X130556388Y-110635439D01*
X130654149Y-110872037D01*
X130835011Y-111053215D01*
X131071438Y-111151388D01*
X131327439Y-111151612D01*
X131564037Y-111053851D01*
X131745215Y-110872989D01*
X131843388Y-110636562D01*
X131843388Y-110635439D01*
X134756388Y-110635439D01*
X134854149Y-110872037D01*
X135035011Y-111053215D01*
X135271438Y-111151388D01*
X135527439Y-111151612D01*
X135764037Y-111053851D01*
X135945215Y-110872989D01*
X136043388Y-110636562D01*
X136043612Y-110380561D01*
X135945851Y-110143963D01*
X135764989Y-109962785D01*
X135528562Y-109864612D01*
X135272561Y-109864388D01*
X135035963Y-109962149D01*
X134854785Y-110143011D01*
X134756612Y-110379438D01*
X134756388Y-110635439D01*
X131843388Y-110635439D01*
X131843612Y-110380561D01*
X131745851Y-110143963D01*
X131564989Y-109962785D01*
X131328562Y-109864612D01*
X131072561Y-109864388D01*
X130835963Y-109962149D01*
X130654785Y-110143011D01*
X130556612Y-110379438D01*
X130556388Y-110635439D01*
X127643388Y-110635439D01*
X127643612Y-110380561D01*
X127545851Y-110143963D01*
X127364989Y-109962785D01*
X127128562Y-109864612D01*
X126872561Y-109864388D01*
X126635963Y-109962149D01*
X126454785Y-110143011D01*
X126356612Y-110379438D01*
X126356388Y-110635439D01*
X124989500Y-110635439D01*
X124989500Y-107184025D01*
X141485281Y-107184025D01*
X141677080Y-107648215D01*
X141949600Y-107921210D01*
X141949600Y-109126263D01*
X141895381Y-109161152D01*
X141835444Y-109248872D01*
X141814358Y-109353000D01*
X141814358Y-110103000D01*
X141832662Y-110200276D01*
X141890152Y-110289619D01*
X141949600Y-110330238D01*
X141949600Y-111920263D01*
X141895381Y-111955152D01*
X141835444Y-112042872D01*
X141814358Y-112147000D01*
X141814358Y-112897000D01*
X141832662Y-112994276D01*
X141890152Y-113083619D01*
X141949600Y-113124238D01*
X141949600Y-114206263D01*
X141895381Y-114241152D01*
X141835444Y-114328872D01*
X141814358Y-114433000D01*
X141814358Y-115183000D01*
X141832662Y-115280276D01*
X141890152Y-115369619D01*
X141977872Y-115429556D01*
X142082000Y-115450642D01*
X142099600Y-115450642D01*
X142099600Y-116163263D01*
X142045381Y-116198152D01*
X141985444Y-116285872D01*
X141964358Y-116390000D01*
X141964358Y-117290000D01*
X141982662Y-117387276D01*
X142040152Y-117476619D01*
X142127872Y-117536556D01*
X142232000Y-117557642D01*
X142757807Y-117557642D01*
X142832000Y-117572400D01*
X142906193Y-117557642D01*
X143432000Y-117557642D01*
X143529276Y-117539338D01*
X143618619Y-117481848D01*
X143678556Y-117394128D01*
X143699642Y-117290000D01*
X143699642Y-116390000D01*
X143681338Y-116292724D01*
X143623848Y-116203381D01*
X143564400Y-116162762D01*
X143564400Y-114958000D01*
X143549642Y-114883807D01*
X143549642Y-114835439D01*
X147356388Y-114835439D01*
X147454149Y-115072037D01*
X147635011Y-115253215D01*
X147871438Y-115351388D01*
X148127439Y-115351612D01*
X148364037Y-115253851D01*
X148545215Y-115072989D01*
X148643388Y-114836562D01*
X148643612Y-114580561D01*
X148545851Y-114343963D01*
X148364989Y-114162785D01*
X148128562Y-114064612D01*
X147872561Y-114064388D01*
X147635963Y-114162149D01*
X147454785Y-114343011D01*
X147356612Y-114579438D01*
X147356388Y-114835439D01*
X143549642Y-114835439D01*
X143549642Y-114433000D01*
X143531338Y-114335724D01*
X143473848Y-114246381D01*
X143414400Y-114205762D01*
X143414400Y-113123737D01*
X143468619Y-113088848D01*
X143528556Y-113001128D01*
X143549642Y-112897000D01*
X143549642Y-112147000D01*
X143531338Y-112049724D01*
X143473848Y-111960381D01*
X143414400Y-111919762D01*
X143414400Y-110635439D01*
X147356388Y-110635439D01*
X147454149Y-110872037D01*
X147635011Y-111053215D01*
X147871438Y-111151388D01*
X148127439Y-111151612D01*
X148364037Y-111053851D01*
X148545215Y-110872989D01*
X148643388Y-110636562D01*
X148643612Y-110380561D01*
X148545851Y-110143963D01*
X148364989Y-109962785D01*
X148128562Y-109864612D01*
X147872561Y-109864388D01*
X147635963Y-109962149D01*
X147454785Y-110143011D01*
X147356612Y-110379438D01*
X147356388Y-110635439D01*
X143414400Y-110635439D01*
X143414400Y-110329737D01*
X143468619Y-110294848D01*
X143528556Y-110207128D01*
X143549642Y-110103000D01*
X143549642Y-109353000D01*
X143531338Y-109255724D01*
X143473848Y-109166381D01*
X143414400Y-109125762D01*
X143414400Y-108024677D01*
X143462215Y-108004920D01*
X143817671Y-107650083D01*
X144010281Y-107186229D01*
X144010719Y-106683975D01*
X143908027Y-106435439D01*
X147356388Y-106435439D01*
X147454149Y-106672037D01*
X147635011Y-106853215D01*
X147871438Y-106951388D01*
X148127439Y-106951612D01*
X148364037Y-106853851D01*
X148545215Y-106672989D01*
X148643388Y-106436562D01*
X148643612Y-106180561D01*
X148545851Y-105943963D01*
X148364989Y-105762785D01*
X148128562Y-105664612D01*
X147872561Y-105664388D01*
X147635963Y-105762149D01*
X147454785Y-105943011D01*
X147356612Y-106179438D01*
X147356388Y-106435439D01*
X143908027Y-106435439D01*
X143818920Y-106219785D01*
X143464083Y-105864329D01*
X143000229Y-105671719D01*
X142497975Y-105671281D01*
X142033785Y-105863080D01*
X141678329Y-106217917D01*
X141485719Y-106681771D01*
X141485281Y-107184025D01*
X124989500Y-107184025D01*
X124989500Y-106435439D01*
X126356388Y-106435439D01*
X126454149Y-106672037D01*
X126635011Y-106853215D01*
X126871438Y-106951388D01*
X127127439Y-106951612D01*
X127364037Y-106853851D01*
X127545215Y-106672989D01*
X127643388Y-106436562D01*
X127643388Y-106435439D01*
X130556388Y-106435439D01*
X130654149Y-106672037D01*
X130835011Y-106853215D01*
X131071438Y-106951388D01*
X131327439Y-106951612D01*
X131564037Y-106853851D01*
X131745215Y-106672989D01*
X131843388Y-106436562D01*
X131843388Y-106435439D01*
X134756388Y-106435439D01*
X134854149Y-106672037D01*
X135035011Y-106853215D01*
X135271438Y-106951388D01*
X135527439Y-106951612D01*
X135764037Y-106853851D01*
X135945215Y-106672989D01*
X136043388Y-106436562D01*
X136043388Y-106435439D01*
X138956388Y-106435439D01*
X139054149Y-106672037D01*
X139235011Y-106853215D01*
X139471438Y-106951388D01*
X139727439Y-106951612D01*
X139964037Y-106853851D01*
X140145215Y-106672989D01*
X140243388Y-106436562D01*
X140243612Y-106180561D01*
X140145851Y-105943963D01*
X139964989Y-105762785D01*
X139728562Y-105664612D01*
X139472561Y-105664388D01*
X139235963Y-105762149D01*
X139054785Y-105943011D01*
X138956612Y-106179438D01*
X138956388Y-106435439D01*
X136043388Y-106435439D01*
X136043612Y-106180561D01*
X135945851Y-105943963D01*
X135764989Y-105762785D01*
X135528562Y-105664612D01*
X135272561Y-105664388D01*
X135035963Y-105762149D01*
X134854785Y-105943011D01*
X134756612Y-106179438D01*
X134756388Y-106435439D01*
X131843388Y-106435439D01*
X131843612Y-106180561D01*
X131745851Y-105943963D01*
X131564989Y-105762785D01*
X131328562Y-105664612D01*
X131072561Y-105664388D01*
X130835963Y-105762149D01*
X130654785Y-105943011D01*
X130556612Y-106179438D01*
X130556388Y-106435439D01*
X127643388Y-106435439D01*
X127643612Y-106180561D01*
X127545851Y-105943963D01*
X127364989Y-105762785D01*
X127128562Y-105664612D01*
X126872561Y-105664388D01*
X126635963Y-105762149D01*
X126454785Y-105943011D01*
X126356612Y-106179438D01*
X126356388Y-106435439D01*
X124989500Y-106435439D01*
X124989500Y-102235439D01*
X126356388Y-102235439D01*
X126454149Y-102472037D01*
X126635011Y-102653215D01*
X126871438Y-102751388D01*
X127127439Y-102751612D01*
X127364037Y-102653851D01*
X127545215Y-102472989D01*
X127643388Y-102236562D01*
X127643388Y-102235439D01*
X130556388Y-102235439D01*
X130654149Y-102472037D01*
X130835011Y-102653215D01*
X131071438Y-102751388D01*
X131327439Y-102751612D01*
X131564037Y-102653851D01*
X131745215Y-102472989D01*
X131843388Y-102236562D01*
X131843388Y-102235439D01*
X134756388Y-102235439D01*
X134854149Y-102472037D01*
X135035011Y-102653215D01*
X135271438Y-102751388D01*
X135527439Y-102751612D01*
X135764037Y-102653851D01*
X135945215Y-102472989D01*
X136043388Y-102236562D01*
X136043388Y-102235439D01*
X138956388Y-102235439D01*
X139054149Y-102472037D01*
X139235011Y-102653215D01*
X139471438Y-102751388D01*
X139727439Y-102751612D01*
X139964037Y-102653851D01*
X140145215Y-102472989D01*
X140243388Y-102236562D01*
X140243388Y-102235439D01*
X147356388Y-102235439D01*
X147454149Y-102472037D01*
X147635011Y-102653215D01*
X147871438Y-102751388D01*
X148127439Y-102751612D01*
X148364037Y-102653851D01*
X148545215Y-102472989D01*
X148643388Y-102236562D01*
X148643612Y-101980561D01*
X148545851Y-101743963D01*
X148364989Y-101562785D01*
X148128562Y-101464612D01*
X147872561Y-101464388D01*
X147635963Y-101562149D01*
X147454785Y-101743011D01*
X147356612Y-101979438D01*
X147356388Y-102235439D01*
X140243388Y-102235439D01*
X140243612Y-101980561D01*
X140145851Y-101743963D01*
X139964989Y-101562785D01*
X139728562Y-101464612D01*
X139472561Y-101464388D01*
X139235963Y-101562149D01*
X139054785Y-101743011D01*
X138956612Y-101979438D01*
X138956388Y-102235439D01*
X136043388Y-102235439D01*
X136043612Y-101980561D01*
X135945851Y-101743963D01*
X135764989Y-101562785D01*
X135528562Y-101464612D01*
X135272561Y-101464388D01*
X135035963Y-101562149D01*
X134854785Y-101743011D01*
X134756612Y-101979438D01*
X134756388Y-102235439D01*
X131843388Y-102235439D01*
X131843612Y-101980561D01*
X131745851Y-101743963D01*
X131564989Y-101562785D01*
X131328562Y-101464612D01*
X131072561Y-101464388D01*
X130835963Y-101562149D01*
X130654785Y-101743011D01*
X130556612Y-101979438D01*
X130556388Y-102235439D01*
X127643388Y-102235439D01*
X127643612Y-101980561D01*
X127545851Y-101743963D01*
X127364989Y-101562785D01*
X127128562Y-101464612D01*
X126872561Y-101464388D01*
X126635963Y-101562149D01*
X126454785Y-101743011D01*
X126356612Y-101979438D01*
X126356388Y-102235439D01*
X124989500Y-102235439D01*
X124989500Y-100389500D01*
X149610500Y-100389500D01*
X149610500Y-116653358D01*
M02*
